<?xml version="1.0" standalone="no"?>
<!DOCTYPE svg PUBLIC "-//W3C//DTD SVG 20010904//EN"
 "http://www.w3.org/TR/2001/REC-SVG-20010904/DTD/svg10.dtd">
<svg version="1.0" xmlns="http://www.w3.org/2000/svg"
 width="198.000000pt" height="139.000000pt" viewBox="0 0 198.000000 139.000000"
 preserveAspectRatio="xMidYMid meet">

<g transform="translate(0.000000,139.000000) scale(0.100000,-0.100000)"
fill="#000000" stroke="none">
<path d="M1811 909 c-34 -17 -73 -46 -88 -66 -25 -33 -27 -34 -35 -14 -7 19
-15 21 -75 19 l-68 -2 68 -3 c70 -4 82 -12 45 -31 -13 -6 -17 -11 -10 -11 7
-1 10 -5 7 -11 -3 -5 0 -10 7 -10 8 0 38 25 67 54 54 55 137 101 169 94 13 -3
8 -9 -15 -21 -39 -21 -40 -25 -12 -71 16 -28 20 -49 17 -93 l-3 -58 40 -6 c39
-5 39 -5 10 -11 l-30 -5 33 -2 c22 -1 32 3 32 14 0 11 -11 15 -39 15 l-40 0 6
53 c4 42 1 62 -16 96 -13 24 -21 44 -19 45 2 1 15 10 31 19 15 10 27 22 27 27
0 19 -47 10 -109 -21z"/>
<path d="M1503 833 c9 -2 23 -2 30 0 6 3 -1 5 -18 5 -16 0 -22 -2 -12 -5z"/>
<path d="M1363 790 c-24 -10 -43 -21 -43 -24 0 -4 90 32 99 40 11 10 -18 2
-56 -16z"/>
<path d="M1246 707 c-28 -29 -59 -67 -69 -85 -28 -50 -13 -38 23 18 18 28 51
66 73 85 22 19 37 35 32 35 -5 0 -32 -24 -59 -53z"/>
<path d="M1692 672 c-11 -7 -10 -10 3 -16 26 -10 42 -7 25 5 -11 8 -8 9 15 5
17 -3 62 -8 100 -10 l70 -5 -60 8 c-33 5 -78 12 -100 15 -22 4 -46 3 -53 -2z"/>
<path d="M340 660 c0 -5 19 -10 42 -10 49 0 47 5 -4 14 -24 4 -38 3 -38 -4z"/>
<path d="M1702 607 c-33 -32 -44 -39 -51 -28 -5 8 -14 10 -22 6 -9 -6 -8 -10
7 -16 17 -6 14 -9 -16 -23 -19 -8 -28 -15 -20 -16 25 0 160 104 149 115 -3 2
-24 -15 -47 -38z"/>
<path d="M1619 613 l-24 -26 27 19 c15 10 28 22 28 27 0 12 -5 8 -31 -20z"/>
<path d="M1135 554 c-9 -15 -12 -23 -6 -20 11 7 35 46 28 46 -3 0 -12 -12 -22
-26z"/>
<path d="M1487 497 c-45 -32 -54 -43 -42 -50 9 -4 13 -12 10 -18 -9 -14 9 -11
31 6 19 14 18 14 -3 15 -20 0 -35 20 -15 20 4 0 25 16 47 35 54 46 43 43 -28
-8z"/>
<path d="M920 460 c0 -5 19 -10 43 -9 32 0 37 2 22 9 -28 12 -65 12 -65 0z"/>
<path d="M1071 435 c-1 -22 16 -45 34 -45 5 0 3 6 -6 13 -9 7 -19 21 -22 32
-5 19 -5 19 -6 0z"/>
<path d="M1285 399 c-22 -10 -33 -18 -25 -18 8 0 26 6 40 13 23 13 26 12 48
-20 26 -39 34 -41 53 -16 13 16 13 16 -5 2 -17 -13 -20 -13 -32 5 -36 54 -36
54 -79 34z"/>
<path d="M1470 411 c0 -5 -8 -12 -17 -14 -14 -4 -15 -5 -2 -6 8 0 24 6 35 14
17 13 17 14 2 15 -10 0 -18 -4 -18 -9z"/>
<path d="M1410 389 c0 -5 5 -7 10 -4 6 3 10 8 10 11 0 2 -4 4 -10 4 -5 0 -10
-5 -10 -11z"/>
<path d="M1143 383 c9 -2 23 -2 30 0 6 3 -1 5 -18 5 -16 0 -22 -2 -12 -5z"/>
</g>
</svg>
